<svg xmlns="http://www.w3.org/2000/svg" viewBox="0 0 1000 353.03"><defs><style>.cls-1{fill:#ff9800;}</style></defs><g id="Layer_2" data-name="Layer 2"><g id="base"><path class="cls-1" d="M941.17.06V0H882.33V58.84h58.83V235.22H823.66v-147a87.55,87.55,0,0,0-5.07-29.5c-.58-1.63-1.21-3.26-1.89-4.87A88.21,88.21,0,0,0,735.43,0H558.94V117.51L509,67.58,491.71,50.33,450.19,8.85l-.06-.07L441.49.15l-.08.08V.15h-.06v0h-58.9V0H353V.06H0V58.9H102.89L0,117.64v58.84l147.09-84v58.73L0,235.2V294l147.09-84V353h58.84V92.49l80.31,45.85A117.69,117.69,0,0,0,353,352.92V294a58.79,58.79,0,1,1,0-117.58V117.56L250.15,58.9H353v-.06h29.42V59h.12v88.11a88.32,88.32,0,0,0,53.89,81.31c1.62.68,3.24,1.31,4.89,1.9a87.83,87.83,0,0,0,29.48,5.05h88.11V353h58.83V58.84h34.46A88.26,88.26,0,0,0,764.82,171.45v63.77H706V294l58.79,58.93,58.84.07V294h117.5v58.93H1000V.06ZM470.83,176.49a29.45,29.45,0,0,1-29.42-29.42V83.25L450.13,92l.06.07L509,150.76l17.11,17.1,8.64,8.63Zm264.6-58.85a29.4,29.4,0,1,1,29.39-29.39A29.39,29.39,0,0,1,735.43,117.64Z"/></g></g></svg>